<?xml version="1.0" encoding="utf-8"?>
<!-- Generator: Adobe Illustrator 27.8.1, SVG Export Plug-In . SVG Version: 6.00 Build 0)  -->
<svg version="1.1" id="Calque_1" xmlns="http://www.w3.org/2000/svg" xmlns:xlink="http://www.w3.org/1999/xlink" x="0px" y="0px"
	 viewBox="0 0 400 300" style="enable-background:new 0 0 400 300;" xml:space="preserve">
<g>
	<g>
		<path d="M94.01,98.27h13.92c8.16,0,12.36,4.98,12.36,10.98c0,4.5-1.86,7.26-5.04,9.12c4.5,1.44,7.86,4.62,7.86,10.68
			c0,7.68-5.82,11.82-14.4,11.82h-14.7V98.27z M107.93,117.05c5.04,0,7.86-3.12,7.86-7.38c0-3.96-2.88-7.32-7.86-7.32h-9.48v14.7
			H107.93z M109.25,136.79c6.24,0,9.36-3.12,9.36-7.92c0-4.56-2.94-7.98-9.36-7.98h-10.8v15.9H109.25z"/>
		<path d="M132.41,98.27h12.72c7.86,0,12.6,4.38,12.6,11.4c0,6.9-4.86,11.4-12.6,11.4h-1.8l21.48,19.8h-6.12l-21.72-19.98v19.98
			h-4.56V98.27z M144.59,116.87c5.46,0,8.52-2.46,8.52-7.2c0-4.8-3.06-7.14-8.52-7.14h-7.62v14.34H144.59z"/>
		<path d="M184.55,97.79l20.52,43.08h-4.74l-5.64-12.06h-20.28l-5.64,12.06h-4.8L184.55,97.79z M192.77,124.73l-8.22-17.4
			l-8.22,17.4H192.77z"/>
		<path d="M215.75,108.29v32.58h-4.44V97.79l30.96,33.06V98.27h4.44v43.08L215.75,108.29z"/>
		<path d="M259.19,98.27h12.48c13.2,0,22.8,9.12,22.8,21.3c0,12.24-9.6,21.3-22.8,21.3h-12.48V98.27z M271.67,136.73
			c10.98,0,18.3-7.26,18.3-17.16c0-9.84-7.32-17.16-18.3-17.16h-8.04v34.32H271.67z"/>
		<path d="M64.49,158.27h4.44v42.6h-4.44V158.27z"/>
		<path d="M85.85,168.29v32.58h-4.44v-43.08l30.96,33.06v-32.58h4.44v43.08L85.85,168.29z"/>
		<path d="M129.29,158.27h12.72c7.86,0,12.6,4.38,12.6,11.4c0,6.9-4.86,11.4-12.6,11.4h-1.8l21.48,19.8h-6.12l-21.72-19.98v19.98
			h-4.56V158.27z M141.47,176.87c5.46,0,8.52-2.46,8.52-7.2c0-4.8-3.06-7.14-8.52-7.14h-7.62v14.34H141.47z"/>
		<path d="M164.03,179.57c0-12.3,9.54-21.78,21.78-21.78c12.24,0,21.78,9.48,21.78,21.78c0,12.36-9.54,21.78-21.78,21.78
			C173.57,201.35,164.03,191.93,164.03,179.57z M202.97,179.57c0-9.84-7.38-17.46-17.16-17.46c-9.84,0-17.16,7.62-17.16,17.46
			c0,9.84,7.32,17.46,17.16,17.46C195.59,197.03,202.97,189.41,202.97,179.57z"/>
		<path d="M230.27,157.79l20.52,43.08h-4.74l-5.64-12.06h-20.28l-5.64,12.06h-4.8L230.27,157.79z M238.49,184.73l-8.22-17.4
			l-8.22,17.4H238.49z"/>
		<path d="M257.03,158.27h12.48c13.2,0,22.8,9.12,22.8,21.3c0,12.24-9.6,21.3-22.8,21.3h-12.48V158.27z M269.51,196.73
			c10.98,0,18.3-7.26,18.3-17.16c0-9.84-7.32-17.16-18.3-17.16h-8.04v34.32H269.51z"/>
		<path d="M297.59,194.87l3.42-2.94c2.1,2.82,5.7,5.16,10.02,5.16c5.52,0,8.94-2.52,8.94-6.84c0-4.14-2.88-6.48-7.62-8.58
			l-4.08-1.74c-6.48-2.82-9.12-6.54-9.12-11.76c0-6.24,5.88-10.38,12.18-10.38c4.74,0,8.7,1.92,11.52,5.28l-3.18,3.12
			c-2.16-2.7-4.74-4.14-8.52-4.14c-4.02,0-7.56,2.28-7.56,6.18c0,3.42,1.86,5.76,6.72,7.92l4.08,1.74
			c5.76,2.58,10.02,5.94,10.02,11.94c0,6.78-4.98,11.52-13.38,11.52C305.15,201.35,300.17,198.35,297.59,194.87z"/>
	</g>
	<g>
		<path d="M334.63,160.44h-3.3v-1.79h8.48v1.79h-3.31v9.57h-1.87V160.44z"/>
		<path d="M344.01,158.65l3.97,5.38l3.99-5.38h1.71v11.36h-1.89v-8.15l-3.79,5.15l-3.83-5.17v8.16h-1.87v-11.36H344.01z"/>
	</g>
</g>
</svg>
